HIERARCHY
ROOT root
{
	OFFSET 0.000000 0.000000 0.000000
	CHANNELS 6 Xposition Yposition Zposition Zrotation Yrotation Xrotation
	JOINT lhip
	{
		OFFSET 0.058581 -0.082280 -0.017664
		CHANNELS 3 Zrotation Yrotation Xrotation
		JOINT lknee
		{
			OFFSET 0.043451 -0.386469 0.008037
			CHANNELS 3 Zrotation Yrotation Xrotation
			JOINT lankle
			{
				OFFSET -0.014790 -0.426874 -0.037428
				CHANNELS 3 Zrotation Yrotation Xrotation
				JOINT ltoe
				{
					OFFSET 0.041054 -0.060286 0.122042
					CHANNELS 3 Zrotation Yrotation Xrotation
					End Site
					{
						OFFSET 0.000000 0.000000 0.000000
					}
				}
			}
		}
	}
	JOINT rhip
	{
		OFFSET -0.060310 -0.090513 -0.013543
		CHANNELS 3 Zrotation Yrotation Xrotation
		JOINT rknee
		{
			OFFSET -0.043257 -0.383688 -0.004843
			CHANNELS 3 Zrotation Yrotation Xrotation
			JOINT rankle
			{
				OFFSET 0.019056 -0.420046 -0.034562
				CHANNELS 3 Zrotation Yrotation Xrotation
				JOINT rtoe
				{
					OFFSET -0.034840 -0.062106 0.130323
					CHANNELS 3 Zrotation Yrotation Xrotation
					End Site
					{
						OFFSET 0.000000 0.000000 0.000000
					}
				}
			}
		}
	}
	JOINT lowerback
	{
		OFFSET 0.004439 0.124404 -0.038385
		CHANNELS 3 Zrotation Yrotation Xrotation
		JOINT upperback
		{
			OFFSET 0.004488 0.137956 0.026820
			CHANNELS 3 Zrotation Yrotation Xrotation
			JOINT chest
			{
				OFFSET -0.002265 0.056032 0.002855
				CHANNELS 3 Zrotation Yrotation Xrotation
				JOINT lowerneck
				{
					OFFSET -0.013390 0.211636 -0.033468
					CHANNELS 3 Zrotation Yrotation Xrotation
					JOINT upperneck
					{
						OFFSET 0.010113 0.088937 0.050410
						CHANNELS 3 Zrotation Yrotation Xrotation
						End Site
						{
							OFFSET 0.000000 0.000000 0.000000
						}
					}
				}
				JOINT lclavicle
				{
					OFFSET 0.071702 0.114000 -0.018898
					CHANNELS 3 Zrotation Yrotation Xrotation
					JOINT lshoulder
					{
						OFFSET 0.122921 0.045205 -0.019046
						CHANNELS 3 Zrotation Yrotation Xrotation
						JOINT lelbow
						{
							OFFSET 0.255332 -0.015649 -0.022946
							CHANNELS 3 Zrotation Yrotation Xrotation
							JOINT lwrist
							{
								OFFSET 0.265709 0.012698 -0.007375
								CHANNELS 3 Zrotation Yrotation Xrotation
								End Site
								{
									OFFSET 0.000000 0.000000 0.000000
								}
							}
						}
					}
				}
				JOINT rclavicle
				{
					OFFSET -0.082954 0.112472 -0.023707
					CHANNELS 3 Zrotation Yrotation Xrotation
					JOINT rshoulder
					{
						OFFSET -0.113228 0.046853 -0.008472
						CHANNELS 3 Zrotation Yrotation Xrotation
						JOINT relbow
						{
							OFFSET -0.260127 -0.014369 -0.031269
							CHANNELS 3 Zrotation Yrotation Xrotation
							JOINT rwrist
							{
								OFFSET -0.269108 0.006794 -0.006027
								CHANNELS 3 Zrotation Yrotation Xrotation
								End Site
								{
									OFFSET 0.000000 0.000000 0.000000
								}
							}
						}
					}
				}
			}
		}
	}
}
MOTION
Frames: 16
Frame Time: 0.033333
-1.857209 0.315855 1.015945 92.315371 -0.287916 87.228741 -4.833152 -0.799136 3.934402 -3.984169 -15.089529 5.779200 6.330668 8.119684 -13.440298 0.000000 -0.000000 0.000000 -2.422993 -1.009374 -11.942208 1.946964 -4.797514 33.775581 7.001339 -7.110640 -15.977575 0.000000 -0.000000 0.000000 -5.603300 -1.311934 13.104823 -0.057644 -5.230843 -1.879484 -2.203814 -1.546407 3.985476 13.198308 -6.954283 -8.902873 6.437477 -18.603681 2.066210 -24.652362 9.225127 -2.358721 -53.874898 -7.668086 8.235174 10.447007 -32.358630 2.887590 -2.880860 -1.881659 -2.776389 31.568504 -1.886550 -6.426732 58.432577 4.905885 9.869785 -20.134986 13.097634 -15.263029 6.953255 0.427979 -4.249855 
-1.856798 0.314083 1.016074 91.758549 -0.299326 87.348227 -4.658161 -0.632501 4.041424 -3.958042 -14.769740 5.355054 6.018872 8.422883 -13.658763 0.000000 -0.000000 0.000000 -2.132082 -1.166412 -11.078558 1.615671 -3.865304 31.620393 6.731737 -6.849461 -14.750076 0.000000 -0.000000 0.000000 -5.486059 -1.119661 12.824046 -0.118244 -4.993565 -2.014807 -2.074832 -1.441645 4.054276 12.569829 -6.784283 -8.945162 6.200106 -18.128036 1.814144 -24.690907 9.355714 -2.464395 -54.002243 -7.495567 7.848602 10.613747 -31.487601 2.700235 -2.616800 -1.608931 -2.775343 31.379925 -2.197214 -6.488990 58.803541 4.768356 9.943663 -19.878790 13.045917 -15.018827 6.714868 0.369381 -4.860751 
-1.856783 0.312026 1.016822 91.141050 -0.216364 87.638596 -4.442859 -0.553135 3.873049 -3.856715 -14.437945 5.158069 5.703585 8.435950 -13.873028 0.000000 -0.000000 0.000000 -1.598112 -1.127920 -9.949083 1.656895 -3.336434 29.126747 6.670947 -6.322092 -14.670180 0.000000 -0.000000 0.000000 -5.246019 -1.127656 12.309276 -0.058767 -4.936972 -2.004366 -1.991372 -1.214638 3.858516 11.929177 -6.505565 -8.687463 5.851018 -17.677572 1.695813 -24.830000 9.381273 -2.383891 -54.142075 -7.129389 7.628517 11.163591 -30.476572 2.191238 -2.523679 -1.494931 -2.862512 31.429793 -2.179020 -6.112867 58.922297 4.723358 9.881154 -19.840817 13.099653 -15.013417 6.649961 0.386935 -5.443340 
-1.856945 0.308849 1.018433 90.348839 -0.026855 88.224943 -4.154393 -0.478899 3.342451 -3.613842 -13.833899 4.989773 5.500414 8.467461 -13.761746 0.000000 -0.000000 0.000000 -0.748563 -1.591135 -8.478605 1.446350 -3.159007 25.075701 6.470373 -6.210259 -14.558381 0.000000 -0.000000 0.000000 -4.920925 -0.971861 11.495983 0.134255 -4.877134 -2.267100 -1.702340 -1.077361 3.664978 11.169785 -6.169988 -8.311924 5.347293 -17.004678 1.888946 -25.069426 9.798555 -2.610760 -54.363335 -6.819829 7.448032 11.270642 -29.360869 2.127906 -2.413481 -1.289768 -2.677838 31.424984 -2.628060 -6.074563 58.995008 4.650587 9.797790 -19.679471 12.794582 -14.864136 6.461244 0.482332 -5.760167 
-1.857259 0.306546 1.019597 89.560022 0.038967 88.508266 -4.038440 -0.560778 3.253888 -3.417619 -13.441803 4.608506 5.548683 8.551203 -13.570684 0.000000 -0.000000 0.000000 -0.355664 -1.496380 -8.138456 1.336508 -2.320508 23.762747 6.681158 -5.871996 -13.865138 0.000000 -0.000000 0.000000 -4.853391 -0.943056 10.918039 0.303435 -4.739558 -2.206075 -1.597486 -0.912577 3.670723 10.965293 -5.842943 -8.470550 4.887269 -16.689277 2.254545 -25.215335 10.122497 -2.779593 -54.463759 -6.778147 7.514612 11.394841 -28.770362 2.131459 -2.431388 -1.766082 -2.740224 31.534481 -2.873213 -6.086014 59.065250 4.844715 10.069549 -19.761571 12.464983 -14.753509 6.357569 0.595501 -5.941340 
-1.858289 0.304556 1.021571 88.951093 0.267961 88.772278 -3.886136 -0.618633 2.918093 -3.131094 -13.108125 4.646435 5.555468 8.892696 -13.567916 0.000000 -0.000000 0.000000 -0.114314 -1.159258 -8.026144 1.653915 -1.631747 22.692740 7.010374 -5.517288 -13.084963 0.000000 -0.000000 0.000000 -4.450268 -1.117430 10.502211 0.521384 -4.566566 -2.219688 -1.466248 -0.896313 3.568771 10.580370 -5.440205 -8.197652 4.459064 -15.955934 2.459708 -25.466983 10.396477 -2.840383 -54.560288 -6.656343 7.547786 11.396452 -28.531992 1.996585 -2.451759 -1.500028 -2.554475 31.512222 -3.089891 -6.219166 59.025026 4.953945 10.178895 -19.643310 12.213428 -14.610192 6.227283 0.536540 -5.705376 
-1.858729 0.302346 1.022902 88.464018 0.427424 88.935706 -3.662423 -0.744831 2.860660 -2.999791 -12.774663 4.425885 5.453919 9.045235 -13.665380 0.000000 -0.000000 0.000000 0.066532 -1.052214 -7.667109 1.882971 -1.652757 21.557887 7.084583 -5.299654 -12.475766 0.000000 -0.000000 0.000000 -4.009080 -1.367974 10.188642 0.653399 -4.637532 -2.212465 -1.405889 -0.791945 3.512352 10.458219 -5.271176 -8.073373 4.111062 -15.481384 2.543727 -25.510141 10.796927 -2.784877 -54.734203 -6.485873 7.461333 11.425049 -29.105166 1.912015 -2.477563 -1.322291 -2.596364 31.481586 -3.221945 -6.067634 59.157951 4.981953 10.275245 -19.844344 12.398654 -14.290857 6.020764 0.375495 -5.164470 
-1.859685 0.300292 1.023536 88.393219 0.391688 89.027592 -3.482878 -0.810298 2.696032 -3.074260 -12.473878 4.434244 5.119324 8.810282 -13.849390 0.000000 -0.000000 0.000000 0.227790 -1.230516 -7.361492 1.823762 -1.546799 20.625288 6.986428 -5.229826 -12.190732 0.000000 -0.000000 0.000000 -3.921058 -1.355112 9.996034 0.834478 -4.791437 -2.119808 -1.171369 -1.029143 3.577737 10.348941 -4.845657 -8.052317 3.901153 -14.917073 2.837136 -25.448512 10.740977 -2.577757 -54.997623 -6.568334 7.511655 11.405718 -29.494675 2.045986 -2.283158 -1.693234 -2.743281 31.402939 -3.460948 -6.062126 59.174994 4.989155 10.488158 -19.903442 12.927087 -13.626026 5.612433 0.632367 -4.767141 
-1.860711 0.298196 1.023846 88.251108 0.262026 88.947143 -3.388889 -0.672096 2.837487 -3.184186 -12.293611 4.243680 4.907430 8.762363 -14.245362 0.000000 -0.000000 0.000000 0.373617 -1.165322 -7.043171 1.656518 -1.191854 20.154898 6.776889 -5.285110 -12.178167 0.000000 -0.000000 0.000000 -3.860942 -1.321759 10.036835 0.926367 -4.842551 -1.954460 -1.096126 -1.165643 3.591619 10.422148 -4.456240 -8.145316 3.840101 -14.406469 2.921572 -25.644283 10.562091 -2.339290 -54.674561 -6.688991 7.487829 11.128965 -30.614733 2.288953 -1.980469 -1.721839 -2.514933 31.417739 -3.539200 -5.909672 59.205413 4.734267 10.690122 -20.192426 13.778100 -12.936694 5.264585 0.653340 -3.933033 
-1.862245 0.295424 1.024020 88.115531 -0.025280 88.897688 -3.467802 -0.420402 2.710405 -3.295435 -12.262231 4.386952 4.634531 8.576065 -14.336045 0.000000 -0.000000 0.000000 0.425610 -0.903409 -7.124208 1.483006 -0.905745 20.169615 6.612662 -5.607692 -12.293073 0.000000 -0.000000 0.000000 -3.917132 -1.471417 10.103247 0.919734 -4.745715 -1.850846 -1.148970 -1.134748 3.791041 10.704363 -4.024119 -8.298583 4.066494 -14.137675 3.090295 -25.822303 10.423713 -2.555201 -54.277893 -7.200724 7.629258 10.851312 -31.609206 2.549051 -1.590095 -1.894247 -2.239084 31.696999 -3.607388 -6.160919 59.146879 4.529512 10.990669 -20.367471 14.014154 -12.552388 4.924209 0.589130 -3.336217 
-1.863240 0.293446 1.024270 88.275369 -0.065061 88.783042 -3.474480 -0.856610 2.643580 -3.203297 -12.069972 4.638793 4.702030 8.610224 -14.126314 0.000000 -0.000000 0.000000 0.561358 -1.049334 -6.803793 1.358634 -1.026330 19.669164 6.522676 -5.642610 -12.042464 0.000000 -0.000000 0.000000 -3.562896 -1.454686 10.284444 0.932535 -4.975360 -1.847551 -1.259337 -1.187838 3.715226 10.940673 -4.214350 -7.906254 4.242287 -13.958578 3.390933 -25.858561 10.183664 -2.452235 -54.394977 -7.598656 7.729649 11.101017 -32.159252 2.379752 -1.506777 -1.900415 -2.226615 31.363066 -3.459975 -5.958398 59.359564 4.413395 10.947272 -20.409010 13.675957 -12.502357 5.044565 0.595753 -3.433601 
-1.864168 0.291048 1.024668 88.220642 -0.112299 88.697359 -3.336475 -0.808892 2.746623 -3.194276 -12.074789 4.462055 4.584588 8.620989 -14.066052 0.000000 -0.000000 0.000000 0.646427 -1.072333 -6.667132 1.400334 -1.025478 19.438658 6.499613 -5.420052 -11.793993 0.000000 -0.000000 0.000000 -3.471804 -1.516172 10.290183 0.972995 -4.883928 -1.846181 -1.234687 -1.198354 3.679405 10.932351 -4.146196 -7.117617 4.204969 -13.636875 3.915389 -25.880796 10.033546 -2.433811 -54.632935 -8.055627 7.782290 11.486482 -32.566167 1.791359 -1.647351 -1.876651 -2.604097 31.190750 -3.475528 -5.827535 59.351700 4.487206 10.834006 -20.189140 13.094213 -12.783383 5.455623 0.519679 -3.810572 
-1.865158 0.288719 1.025404 88.356518 -0.151301 88.801777 -3.173550 -0.712480 2.567103 -3.182400 -11.915011 4.430068 4.602179 8.410733 -13.882817 0.000000 -0.000000 0.000000 0.712507 -1.126868 -6.414246 1.533337 -1.062878 18.652510 6.848778 -5.230695 -11.274236 0.000000 -0.000000 0.000000 -3.383263 -1.473438 10.190030 1.052427 -4.778106 -2.000520 -1.167015 -1.219221 3.559382 11.005658 -4.542409 -6.198935 4.168519 -13.477154 4.336740 -26.061810 10.041484 -2.438608 -54.774759 -8.452085 7.932660 11.534941 -33.243758 1.711045 -1.823474 -1.939461 -2.577991 31.070976 -3.816971 -5.920497 59.254261 4.301705 10.634381 -20.032312 12.914779 -13.076904 6.079417 0.640275 -3.890471 
-1.866335 0.286278 1.025920 88.541941 -0.189425 88.917051 -3.130542 -1.166778 2.171921 -3.163245 -11.804412 4.848171 4.647816 8.589834 -13.944100 0.000000 -0.000000 0.000000 0.870458 -1.079992 -6.310977 1.471636 -1.170197 18.121288 6.762673 -5.358159 -10.995889 0.000000 -0.000000 0.000000 -3.182091 -1.434446 10.032158 1.080359 -4.764377 -2.008738 -1.249314 -1.337231 3.628732 10.965457 -4.423568 -5.963664 4.169004 -13.268886 4.922455 -26.212687 10.118190 -2.256549 -54.818353 -8.966529 8.106299 11.682738 -34.409930 1.342777 -1.883683 -1.979775 -2.673189 30.987546 -4.109886 -6.095028 59.347123 4.246556 10.579476 -19.894471 12.840311 -13.478449 6.642376 0.791153 -4.327559 
-1.868264 0.283934 1.026646 88.775432 -0.244565 89.068647 -3.079571 -1.488718 1.441180 -3.215481 -11.821928 5.747690 4.544623 8.567282 -14.257427 0.000000 -0.000000 0.000000 1.056086 -1.057097 -6.302805 1.418728 -1.249872 17.630315 6.611957 -5.488893 -10.901726 0.000000 -0.000000 0.000000 -3.008083 -1.423387 10.300965 1.051426 -4.672437 -2.427012 -1.291703 -1.289863 3.578565 11.121778 -4.767235 -5.867050 4.371262 -13.416720 5.224574 -26.211857 10.157088 -2.256753 -54.870832 -9.151680 8.393106 11.316258 -35.573598 1.592544 -2.008975 -2.148945 -2.668542 30.723788 -4.420051 -6.275590 59.699469 3.751966 10.491006 -19.800890 12.990273 -13.543278 7.341111 0.942363 -4.603970 
-1.870801 0.281889 1.027111 89.227824 -0.345447 89.065088 -3.126385 -2.490523 0.568112 -3.317487 -11.810753 7.221289 4.345255 8.826622 -14.726145 0.000000 -0.000000 0.000000 1.278440 -0.679497 -6.115616 1.281883 -1.382393 17.067789 6.025524 -6.308910 -11.066077 0.000000 -0.000000 0.000000 -2.834198 -1.373341 11.026946 0.936429 -4.571604 -2.827585 -1.342521 -1.404323 3.666939 11.357005 -4.635615 -6.896101 4.724915 -13.549776 5.720368 -26.231021 9.909875 -2.220284 -54.769881 -9.420730 8.806409 10.958549 -36.646600 1.983629 -1.957503 -2.477607 -2.628460 30.402359 -4.536894 -6.749830 60.161223 3.207179 10.586945 -19.434277 13.002338 -13.473983 7.745116 1.050848 -4.969870 
